PathFileType	4	(X/Y/Z)	C:\Users\Biomechanik\SynologyDrive\AlexP\Athlete_03\Athlete_3_25_03_31\Walking_06\marker_experimental.trc
DataRate	CameraRate	NumFrames	NumMarkers	Units	OrigDataRate	OrigDataStartFrame	OrigNumFrames
200.000000	200.000000	4	53	mm	200.000000	222	445
Frame#	Time	GLAB			RFHD			LFHD			C7			T6			SPINMOL			SPINM2			SPINM3			T12			BELTOL			BELT2			BELT3			SACROL			SACR2			SACR3			LTHOL			LTH2			LTH3			LSHAOL			LSHA2			LSHA3			LHEE			LTOE			LM5			RTHOL			RTH2			RTH3			RSHAOL			RSHA2			RSHA3			RHEE			RTOE			RM5			STRN			XIPH			LACR			LUAOL			LUA2			LUA3			LLAOL			LLA2			LLA3			LWRR			LWRU			RACR			RUAOL			RUA2			RUA3			RLAOL			RLA2			RLA3			RWRR			RWRU			
		X1	Y1	Z1	X2	Y2	Z2	X3	Y3	Z3	X4	Y4	Z4	X5	Y5	Z5	X6	Y6	Z6	X7	Y7	Z7	X8	Y8	Z8	X9	Y9	Z9	X10	Y10	Z10	X11	Y11	Z11	X12	Y12	Z12	X13	Y13	Z13	X14	Y14	Z14	X15	Y15	Z15	X16	Y16	Z16	X17	Y17	Z17	X18	Y18	Z18	X19	Y19	Z19	X20	Y20	Z20	X21	Y21	Z21	X22	Y22	Z22	X23	Y23	Z23	X24	Y24	Z24	X25	Y25	Z25	X26	Y26	Z26	X27	Y27	Z27	X28	Y28	Z28	X29	Y29	Z29	X30	Y30	Z30	X31	Y31	Z31	X32	Y32	Z32	X33	Y33	Z33	X34	Y34	Z34	X35	Y35	Z35	X36	Y36	Z36	X37	Y37	Z37	X38	Y38	Z38	X39	Y39	Z39	X40	Y40	Z40	X41	Y41	Z41	X42	Y42	Z42	X43	Y43	Z43	X44	Y44	Z44	X45	Y45	Z45	X46	Y46	Z46	X47	Y47	Z47	X48	Y48	Z48	X49	Y49	Z49	X50	Y50	Z50	X51	Y51	Z51	X52	Y52	Z52	X53	Y53	Z53	

223	1.11	1125.37646484375	1559.4521484375	214.9486694335939	1074.235717773438	1584.560302734375	279.7384643554689	1084.715698242188	1586.947387695312	141.3325958251955	896.2404174804686	1406.0908203125	195.4380187988283	836.9241943359374	1237.48974609375	191.843475341797	827.5213623046874	1197.154541015625	170.8829345703126	823.9295654296874	1189.785034179688	220.6476287841798	832.9495239257811	1133.04150390625	186.7053222656251	857.6229858398436	1067.044311523438	189.2991333007814	819.3009033203124	1034.523681640625	181.9835815429689	824.9847412109374	1030.111083984375	231.792694091797	815.8502807617186	971.6185913085938	201.1781311035158	829.7458496093749	933.1576538085938	185.0912475585939	842.3405151367188	925.1738891601562	234.1209716796876	813.5191040039062	872.1348266601562	206.0460357666017	824.9244384765625	680.0400390625	5.532135963440093	767.14208984375	644.0787963867188	47.17884063720717	806.0182495117188	624.3397827148438	22.90237617492691	681.7598266601562	353.9218750000001	26.0469722747804	611.5006103515625	319.4393615722657	41.16942977905285	657.222412109375	297.7406005859376	37.86488342285168	514.20361328125	155.0721893310547	135.223617553711	693.8297119140625	38.82809829711918	129.0874633789064	648.2703857421875	36.11094665527348	29.47310447692883	1020.736572265625	638.0550537109376	364.8492126464845	1094.909301757812	610.0137939453126	373.0903015136721	1055.97314453125	588.3301391601564	352.9929809570314	1150.82763671875	314.3168334960938	346.3092956542971	1212.118041992188	264.6129455566407	348.5950317382815	1165.508422851562	256.5195007324219	332.3938598632815	1241.293334960938	44.96136093139656	234.5687103271487	1433.531127929688	128.381072998047	244.8438262939456	1402.414428710938	83.01208496093759	342.1266784667972	1065.736938476562	1301.056030273438	195.1107635498049	1078.760375976562	1157.665405273438	187.0879058837893	973.2520751953124	1374.216430664062	24.04195785522479	990.1979980468749	1232.159301757812	-84.36768341064435	989.9090576171874	1170.6337890625	-108.1374435424803	1034.998779296875	1183.90087890625	-86.72239685058575	1114.776245117188	1004.278137207031	-140.0492858886717	1127.473266601562	927.7256469726564	-122.9863433837888	1160.703979492188	964.1533203125001	-131.6528015136716	1244.42724609375	904.5063476562501	-119.204406738281	1262.889892578125	938.0932006835939	-48.35936737060523	972.9556884765623	1357.055786132812	364.6716613769533	924.945373535156	1213.795776367188	460.0413208007814	937.5380249023435	1149.627075195312	472.5424194335939	887.7462768554685	1161.698852539062	476.1687011718752	878.227355957031	945.2977294921875	519.1104125976564	916.6267089843749	889.025146484375	560.7567749023439	882.1384887695311	881.7605590820312	527.7621459960939	901.0809326171874	798.0906982421875	554.5978393554689	953.1825561523436	772.5573120117189	496.148651123047	
224	1.115	1132.945434570312	1559.171875	216.3574829101564	1081.8193359375	1584.187866210938	281.1963806152345	1092.19140625	1586.65478515625	142.7879333496096	904.0012207031249	1405.521118164062	196.926727294922	844.9399414062499	1236.871215820312	192.9760589599611	835.5846557617186	1196.55078125	171.9462738037111	831.9181518554686	1189.13818359375	221.7106933593751	841.0896606445311	1132.423950195312	187.6875457763673	865.8686523437499	1066.427490234375	190.1521301269533	827.7001953124999	1033.718627929688	182.8237304687501	833.3652343749999	1029.31103515625	232.6385650634767	824.3957519531249	970.799560546875	202.0069885253908	838.1161499023436	932.3797607421875	185.7346649169923	850.6481323242188	924.5133666992188	234.8152008056642	822.209228515625	871.2937622070312	206.715530395508	833.1259765625	679.6453857421875	5.925806045532379	775.5345458984375	643.6284790039062	47.77496719360366	814.2726440429688	623.9198608398438	23.2621517181398	688.0982055664062	355.0979919433594	25.80410575866712	617.3954467773438	321.6357116699219	41.12504196167004	662.7957763671875	299.2923889160157	37.667938232422	518.364501953125	159.2464141845703	135.1796112060548	693.828125	38.54294586181645	129.2628784179689	649.0012817382812	36.43677902221684	29.46538543701184	1029.933837890625	638.3338012695314	365.5249633789064	1104.235473632812	610.4299316406251	372.9272155761721	1065.070678710938	588.6852416992189	353.5816650390627	1157.649169921875	314.0715637207032	346.2840881347659	1218.253295898438	263.5874938964844	348.4590759277346	1171.558349609375	256.0830078125001	332.2309570312502	1243.907104492188	44.63467788696297	234.2269592285159	1437.55078125	123.3781967163087	244.0353088378909	1405.68212890625	79.07248687744149	341.4231262207034	1073.664428710938	1300.683471679688	196.404983520508	1086.946166992188	1157.370849609375	188.1735534667971	981.1421508789061	1373.945434570312	25.4762496948244	998.1151733398436	1232.053588867188	-83.08001708984357	997.5671386718749	1170.593383789062	-106.9811248779295	1042.677124023438	1183.577514648438	-85.42516326904278	1121.800415039062	1003.889831542969	-139.1759338378904	1134.490478515625	927.2926025390626	-122.215637207031	1167.698974609375	963.7130737304689	-130.8398132324216	1251.387573242188	903.9893798828126	-118.4797058105466	1269.841918945312	937.4365234375001	-47.57381820678687	980.8308105468748	1356.224487304688	366.0591735839845	933.0053100585935	1212.661010742188	461.0998535156252	945.655090332031	1148.46630859375	473.4440917968752	895.8573608398435	1160.49365234375	477.1247558593752	886.240295410156	944.1114501953125	519.5607910156251	924.4776000976561	887.6882934570312	561.1641235351564	890.0242919921874	880.5499267578125	528.1204833984376	908.7941284179686	796.81689453125	554.8843383789064	960.7000122070311	771.1820678710939	496.3074645996095	
225	1.12	1140.520874023438	1558.974365234375	217.7553863525393	1089.417846679688	1583.910034179688	282.6451110839846	1099.667602539062	1586.4365234375	144.2329101562502	911.7686157226561	1405.026733398438	198.4393157958986	852.9800415039061	1236.321166992188	194.1266326904299	843.6782836914061	1196.013916015625	173.0225372314455	839.9391479492186	1188.55419921875	222.7857513427736	849.2699584960936	1131.873657226562	188.679885864258	874.1470947265624	1065.8828125	191.0058746337892	836.1953124999999	1032.974731445312	183.6203460693361	841.8189086914061	1028.580688476562	233.4434356689455	833.0286865234374	970.0468139648438	202.8000946044923	846.5105590820311	931.6309814453125	186.3444824218751	858.9397583007812	923.9251098632812	235.494827270508	830.9754028320312	870.481201171875	207.3773193359376	841.5385131835938	679.1949462890625	6.337048530578768	784.1777954101562	643.0748291015625	48.39381790161147	822.7788696289062	623.4273071289062	23.62930297851578	694.7547607421875	356.2896118164063	25.53995704650892	623.6288452148438	323.8707580566407	41.11616516113293	668.6832885742188	300.8788452148438	37.45199203491223	522.9692993164062	163.5590515136719	135.1673431396485	693.846435546875	38.28231430053715	129.463592529297	649.7717895507812	36.81393051147465	29.48048400878918	1039.010498046875	638.7216186523439	366.2006225585939	1113.431518554688	610.9525146484376	372.805603027344	1074.047729492188	589.1558227539064	354.1972045898439	1164.413940429688	313.9868774414063	346.3457946777346	1224.3017578125	262.7104492187501	348.4060058593752	1177.52978515625	255.8012237548829	332.1607971191409	1246.19189453125	44.51874923706063	233.942337036133	1441.3271484375	118.1831741333009	243.2793121337893	1408.6142578125	75.04425048828134	340.7723693847659	1081.603881835938	1300.403686523438	197.7252502441408	1095.170043945312	1157.1767578125	189.2994842529299	989.0317993164061	1373.733032226562	26.92152404785174	1006.010559082031	1231.99267578125	-81.78062438964825	1005.189880371094	1170.602172851562	-105.810218811035	1050.32177734375	1183.290405273438	-84.11205291748027	1128.721557617188	1003.505004882813	-138.3051147460936	1141.361572265625	926.8562622070314	-121.4624786376951	1174.572143554688	963.2529296875001	-130.0409545898435	1258.20166015625	903.4099731445314	-117.7879943847654	1276.667846679688	936.6969604492189	-46.81857681274391	988.7211303710935	1355.462280273438	367.4735717773439	941.109191894531	1211.58154296875	462.1799926757814	953.8277587890623	1147.362915039062	474.3629150390627	904.022277832031	1159.337768554688	478.1038513183595	894.3478393554685	942.9666748046875	520.0195312500001	932.4355468749999	886.3921508789064	561.5717773437502	898.0153808593749	879.3804931640625	528.4809570312501	916.6268920898436	795.5895385742188	555.1629638671876	968.3359374999999	769.8660278320314	496.4514160156252	
226	1.125	1148.10205078125	1558.864013671875	219.1403808593752	1097.030639648438	1583.731567382812	284.0825805664065	1107.143676757812	1586.296875	145.6655883789064	919.5413208007811	1404.613525390625	199.9726867675783	861.0403442382811	1235.845581054688	195.290740966797	851.7966308593749	1195.551147460938	174.1064758300783	847.9888916015624	1188.03857421875	223.8672332763673	857.4838256835936	1131.397094726562	189.6751251220705	882.4472656249999	1065.417236328125	191.8495330810549	844.7801513671874	1032.3076171875	184.3630828857423	850.3387451171874	1027.93603515625	234.1967926025392	841.7381591796874	969.3763427734375	203.5481262207033	854.9158325195311	930.9161987304688	186.9131774902345	867.20849609375	923.4135131835938	236.1487274169924	839.8053588867188	869.70361328125	208.0270843505861	850.1604614257812	678.6847534179688	6.763890743255772	793.07568359375	642.4097900390625	49.03476715087906	831.5390014648438	622.8568725585938	23.99824905395523	701.7463989257812	357.4969482421876	25.24986267089857	630.2213134765625	326.1433105468751	41.14404678344738	674.9036254882812	302.4997558593751	37.21342849731457	528.0496826171875	168.0110473632813	135.1844787597657	693.9050903320312	38.05891799926762	129.6891479492189	650.584716796875	37.26111221313481	29.52420425415051	1047.942626953125	639.2212524414064	366.8815002441408	1122.470581054688	611.5797119140626	372.7441101074221	1082.8818359375	589.7416992187501	354.8442382812502	1171.142700195312	314.0779418945313	346.5146179199221	1230.291870117188	262.0093688964844	348.4574279785159	1183.45361328125	255.6935424804688	332.2078552246096	1248.205688476562	44.61558914184578	233.7265930175784	1444.888305664062	112.8823776245118	242.5805206298831	1411.256591796875	70.99833679199227	340.1802062988284	1089.550537109375	1300.222534179688	199.0688629150393	1103.423950195312	1157.08740234375	190.4637298583986	996.9163818359374	1373.583740234375	28.37296104431171	1013.875244140625	1231.977172851562	-80.47041320800763	1012.77099609375	1170.660522460938	-104.6250534057615	1057.927368164062	1183.043823242188	-82.78831481933574	1135.538330078125	1003.126098632813	-137.4359893798826	1148.081298828125	926.4197387695314	-120.7258148193357	1181.321166992188	962.7747192382814	-129.2558288574216	1264.865478515625	902.7684326171876	-117.1306381225584	1283.3662109375	935.8759765625001	-46.09611511230445	996.6234741210935	1354.775024414062	368.9118652343752	949.255187988281	1210.564086914062	463.2791442871095	962.054504394531	1146.324340820312	475.2971191406252	912.2399291992185	1158.237915039062	479.1051330566408	902.5510253906248	941.8697509765625	520.4863891601564	940.5021972656249	885.1430664062501	561.978210449219	906.1124267578124	878.2588500976562	528.8438110351564	924.5789184570311	794.4144897460938	555.4329833984376	976.0917968749999	768.6160278320314	496.5802307128908	
